<svg xmlns="http://www.w3.org/2000/svg" xmlns:xlink="http://www.w3.org/1999/xlink" viewBox="0 0 233.63 233.63"><defs><style>.cls-1{fill:url(#dark_wine);}.cls-2{fill:url(#light_wine);}.cls-3{fill:none;stroke:#000;stroke-miterlimit:10;opacity:0;}.cls-4{fill:#c5c6c8;}.cls-5{fill:#1a1e21;stroke:#3a3a3a;stroke-width:2px;}.cls-6{fill:#fff;}</style><linearGradient id="dark_wine" x1="87.36" y1="158.67" x2="87.36" y2="59.85" gradientUnits="userSpaceOnUse"><stop offset="0" stop-color="#730000"/><stop offset="0.49" stop-color="#a51733"/></linearGradient><linearGradient id="light_wine" x1="113.06" y1="197.59" x2="113.06" y2="80.87" gradientUnits="userSpaceOnUse"><stop offset="0" stop-color="#f44a6b"/><stop offset="0.28" stop-color="#df294c"/></linearGradient></defs><g id="CameraUI_U"><path id="U_Left" class="cls-1" d="M47.05,119.47s7.58,16,14.12,23.42a45.28,45.28,0,0,0,16.37,11.86A49.46,49.46,0,0,0,99,158.62c9.43-.46,20.55-3.87,29.24-11.86-3.9,2.5-9.87,5.1-15.9,4.77a25.63,25.63,0,0,1-18.38-9.09c-9.39-10.31-7.62-28.35-7.75-32.68-.35-11.42.77-21.92-1.76-36.19-.46-2.64-1.79-5.19-4.55-8-1.83-1.86-8.4-5.75-13.42-5.74-7.31,0-12.95,3.71-15.38,7.84-2,3.41-3.06,4.22-4.23,25.08a217.23,217.23,0,0,0,.22,26.76Z" transform="translate(0.5 0.5)"/><path id="U_Right" class="cls-2" d="M144.12,89.6a16.24,16.24,0,0,1,4.06-4.9c4.16-3.4,9-3.67,10.92-3.82a19.7,19.7,0,0,1,12.53,4.58c1.19,1,6.11,5.58,7.13,17.29.73,8.51,3.31,65.93-37,87.14-4.22,2.22-18,9.25-35.66,7.38a62.43,62.43,0,0,1-20.8-6.11,65.8,65.8,0,0,1-18.89-14.23c-20.21-21.67-19.36-57.46-19.36-57.46s7.58,16,14.12,23.42a45.28,45.28,0,0,0,16.37,11.86A49.46,49.46,0,0,0,99,158.62c11.66-.57,25.93-5.64,35-18.32C143.52,126.8,138.46,100.51,144.12,89.6Z" transform="translate(0.5 0.5)"/></g><g id="CameraUI_Lens"><circle id="ellipse" class="cls-3" cx="116.81" cy="116.81" r="116.31"/><g id="lens"><circle id="lens_bg" class="cls-4" cx="159.13" cy="58.39" r="18.66"/><path id="lens_inner" class="cls-5" d="M169.64,58.31a11,11,0,1,1-22,0c0-6.08,4.93-11.86,11-11.86S169.64,52.23,169.64,58.31Z" transform="translate(0.5 0.5)"/><g id="reflections"><ellipse id="dot_1" class="cls-6" cx="174.36" cy="53.69" rx="1.84" ry="1.42"/><ellipse id="dot_2" class="cls-6" cx="174.36" cy="57.08" rx="1.84" ry="1.42"/><ellipse id="dot_3" class="cls-6" cx="174.36" cy="60.46" rx="1.84" ry="1.42"/><circle id="dot_4" class="cls-6" cx="164.09" cy="63.77" r="1.66"/><path id="wide_1" class="cls-6" d="M156.63,48.9c-1.07-.88-5.52,3.09-6.31,5.43a1.53,1.53,0,0,0,0,1.26c.43.69,1.73.61,2.19.54,2.68-.44,4.71-4.09,4.8-4.37A3.21,3.21,0,0,0,156.63,48.9Z" transform="translate(0.5 0.5)"/></g></g></g></svg>